<svg fill="none" height="24" viewBox="0 0 24 24" width="24" xmlns="http://www.w3.org/2000/svg" xmlns:xlink="http://www.w3.org/1999/xlink"><linearGradient id="a" gradientUnits="userSpaceOnUse" x1="20.572" x2="3.429" y1="20.572" y2="3.429"><stop offset="0" stop-color="#ff4c8c"/><stop offset="1" stop-color="#ff7474"/></linearGradient><linearGradient id="b" gradientUnits="userSpaceOnUse" x1="7.817" x2="17.527" y1="7.35" y2="15.019"><stop offset="0" stop-color="#ff7474"/><stop offset="1" stop-color="#ff4c8c"/></linearGradient><path d="m12 23.1429c6.154 0 11.1428-4.9888 11.1428-11.1429 0-6.154-4.9888-11.142822-11.1428-11.142822-6.15404 0-11.14286 4.988822-11.14286 11.142822 0 6.1541 4.98882 11.1429 11.14286 11.1429z" stroke="url(#a)" stroke-width="1.714"/><path clip-rule="evenodd" d="m14.5169 7.48634c-.2504-.14493-.5347-.22096-.824-.22036h-2.1858v4.00322h4.8523v.5065h-8.71978v-.5073h1.61802v-2.06408c0-.45219-.03631-.79295-.1074-1.01713-.0711-.22419-.18787-.40289-.34785-.53514-.16155-.13086-.39561-.24891-.70216-.35415l-.46061-.15787v-.28285h8.72038v3.24632h-.3107c-.0697-.37269-.1773-.73733-.3211-1.08819-.1318-.32649-.3066-.63401-.5195-.91451-.204-.26184-.4346-.46666-.6918-.61446zm-6.87725 5.81576v-.5073h8.71945v.5076h-4.8529v2.0641c-.0021.2663.0158.5323.0537.796.0358.2365.1001.4202.193.5514.0901.129.2049.2388.3378.3231.1311.0844.3223.1632.5733.2367l.5669.1578v.2828h-5.59125v-.2828l.4606-.1578c.21787-.0725.42648-.1702.62153-.2913.17143-.1107.30368-.2769.39657-.4969.09288-.2206.13932-.5936.13932-1.1192v-2.0642z" fill="url(#b)" fill-rule="evenodd"/></svg>